<svg width="105" height="105" viewBox="0 0 105 105" fill="none" xmlns="http://www.w3.org/2000/svg">
<path d="M59.0625 30.625H45.9375C37.6879 30.625 33.5631 30.625 31.0003 33.1878C28.4375 35.7506 28.4375 39.8754 28.4375 48.125V50.3125C28.4375 58.562 28.4375 62.6867 31.0003 65.2496C33.5631 67.8125 37.6879 67.8125 45.9375 67.8125H59.0625C67.312 67.8125 71.4367 67.8125 73.9996 65.2496C76.5625 62.6867 76.5625 58.562 76.5625 50.3125V48.125C76.5625 39.8754 76.5625 35.7506 73.9996 33.1878C71.4367 30.625 67.312 30.625 59.0625 30.625Z" stroke="#F03333" stroke-width="7" stroke-linecap="round" stroke-linejoin="round"/>
<path d="M39.375 30.625V21.875C39.375 14.6263 45.2511 8.75 52.5 8.75C59.7489 8.75 65.625 14.6263 65.625 21.875V30.625" stroke="#F03333" stroke-width="7" stroke-linecap="round" stroke-linejoin="round"/>
<path d="M59.0625 86.2439L45.9375 99.3689M45.9375 86.2439L59.0625 99.3689" stroke="#F03333" stroke-width="7" stroke-linecap="round" stroke-linejoin="round"/>
<path d="M91.875 86.2439L78.75 99.3689M78.75 86.2439L91.875 99.3689" stroke="#F03333" stroke-width="7" stroke-linecap="round" stroke-linejoin="round"/>
<path d="M26.25 86.2439L13.125 99.3689M13.125 86.2439L26.25 99.3689" stroke="#F03333" stroke-width="7" stroke-linecap="round" stroke-linejoin="round"/>
</svg>
