<svg width="27" height="22" viewBox="0 0 27 22" fill="none" xmlns="http://www.w3.org/2000/svg">
<path d="M21.8 20.1765C22.5426 20.1765 23.2548 19.879 23.7799 19.3495C24.305 18.82 24.6 18.1018 24.6 17.353V8.88237C24.6 8.13352 24.305 7.41535 23.7799 6.88583C23.2548 6.35632 22.5426 6.05884 21.8 6.05884H16.34C15.8717 6.06347 15.4098 5.94959 14.9964 5.72761C14.5831 5.50564 14.2316 5.18267 13.974 4.78825L12.84 3.09414C12.5851 2.70374 12.238 2.38328 11.8299 2.16152C11.4218 1.93976 10.9656 1.82362 10.502 1.82355H5.00001C4.25741 1.82355 3.54522 2.12103 3.02011 2.65054C2.49501 3.18005 2.20001 3.89823 2.20001 4.64708V17.353C2.20001 18.1018 2.49501 18.82 3.02011 19.3495C3.54522 19.879 4.25741 20.1765 5.00001 20.1765H21.8Z" fill="#1F0E0E" stroke="#F1E4E4" stroke-width="3" stroke-linecap="round" stroke-linejoin="round"/>
</svg>
