<svg width="32" height="32" viewBox="0 0 32 32" fill="none" xmlns="http://www.w3.org/2000/svg">
<path fill-rule="evenodd" clip-rule="evenodd" d="M30 16C30 23.732 23.732 30 16 30C8.26801 30 2 23.732 2 16C2 8.26801 8.26801 2 16 2C23.732 2 30 8.26801 30 16ZM16 18.8C19.0928 18.8 21.6 16.2928 21.6 13.2C21.6 10.1072 19.0928 7.6 16 7.6C12.9072 7.6 10.4 10.1072 10.4 13.2C10.4 16.2928 12.9072 18.8 16 18.8Z" fill="#1F0E0E"/>
<path d="M21.6 13.2C21.6 16.2928 19.0928 18.8 16 18.8C12.9072 18.8 10.4 16.2928 10.4 13.2C10.4 10.1072 12.9072 7.6 16 7.6C19.0928 7.6 21.6 10.1072 21.6 13.2Z" fill="#1F0E0E"/>
<path d="M24.4 27.2C24.4 24.9722 23.515 22.8356 21.9397 21.2603C20.3644 19.685 18.2278 18.8 16 18.8M16 18.8C13.7722 18.8 11.6356 19.685 10.0603 21.2603C8.485 22.8356 7.6 24.9722 7.6 27.2M16 18.8C19.0928 18.8 21.6 16.2928 21.6 13.2C21.6 10.1072 19.0928 7.6 16 7.6C12.9072 7.6 10.4 10.1072 10.4 13.2C10.4 16.2928 12.9072 18.8 16 18.8ZM30 16C30 23.732 23.732 30 16 30C8.26801 30 2 23.732 2 16C2 8.26801 8.26801 2 16 2C23.732 2 30 8.26801 30 16Z" stroke="#F1E4E4" stroke-width="2.3" stroke-linecap="round" stroke-linejoin="round"/>
</svg>
