<svg width="28" height="34" viewBox="0 0 28 34" fill="none" xmlns="http://www.w3.org/2000/svg">
<path d="M1.66675 5.75V28.25C1.66675 27.2554 2.0783 26.3016 2.81086 25.5984C3.54343 24.8951 4.537 24.5 5.573 24.5H26.6667V3.5C26.6667 3.10218 26.5021 2.72064 26.2091 2.43934C25.9161 2.15804 25.5186 2 25.1042 2H5.573C4.537 2 3.54343 2.39509 2.81086 3.09835C2.0783 3.80161 1.66675 4.75544 1.66675 5.75Z" fill="#F03333"/>
<path d="M26.6667 30.5V24.5H5.573C4.537 24.5 3.54343 24.8951 2.81086 25.5984C2.0783 26.3016 1.66675 27.2554 1.66675 28.25C1.66675 29.2446 2.0783 30.1984 2.81086 30.9016C3.54343 31.6049 4.537 32 5.573 32H25.1042C25.5186 32 25.9161 31.842 26.2091 31.5607C26.5021 31.2794 26.6667 30.8978 26.6667 30.5Z" fill="#F03333" fill-opacity="0.3"/>
<path d="M1.66675 28.25V5.75C1.66675 4.75544 2.0783 3.80161 2.81086 3.09835C3.54343 2.39509 4.537 2 5.573 2H25.1042C25.5186 2 25.9161 2.15804 26.2091 2.43934C26.5021 2.72064 26.6667 3.10218 26.6667 3.5M1.66675 28.25C1.66675 29.2446 2.0783 30.1984 2.81086 30.9016C3.54343 31.6049 4.537 32 5.573 32H25.1042C25.5186 32 25.9161 31.842 26.2091 31.5607C26.5021 31.2794 26.6667 30.8978 26.6667 30.5M1.66675 28.25C1.66675 27.2554 2.0783 26.3016 2.81086 25.5984C3.54343 24.8951 4.537 24.5 5.573 24.5H26.6667M26.6667 3.5V30.5M26.6667 3.5V24.5M26.6667 30.5V24.5" stroke="#F03333" stroke-width="2.5" stroke-linecap="round" stroke-linejoin="round"/>
</svg>
