<svg width="29" height="34" viewBox="0 0 29 34" fill="none" xmlns="http://www.w3.org/2000/svg">
<path d="M1.80005 5.75V28.25C1.80005 27.2554 2.2116 26.3016 2.94416 25.5984C3.67673 24.8951 4.6703 24.5 5.7063 24.5H26.8V3.5C26.8 3.10218 26.6354 2.72064 26.3424 2.43934C26.0494 2.15804 25.6519 2 25.2375 2H5.7063C4.6703 2 3.67673 2.39509 2.94416 3.09835C2.2116 3.80161 1.80005 4.75544 1.80005 5.75Z" fill="#1F0E0E"/>
<path d="M1.80005 28.25V5.75C1.80005 4.75544 2.2116 3.80161 2.94416 3.09835C3.67673 2.39509 4.6703 2 5.7063 2H25.2375C25.6519 2 26.0494 2.15804 26.3424 2.43934C26.6354 2.72064 26.8 3.10218 26.8 3.5M1.80005 28.25C1.80005 29.2446 2.2116 30.1984 2.94416 30.9016C3.67673 31.6049 4.6703 32 5.7063 32H25.2375C25.6519 32 26.0494 31.842 26.3424 31.5607C26.6354 31.2794 26.8 30.8978 26.8 30.5V3.5M1.80005 28.25C1.80005 27.2554 2.2116 26.3016 2.94416 25.5984C3.67673 24.8951 4.6703 24.5 5.7063 24.5H26.8V3.5" stroke="#F1E4E4" stroke-width="2.5" stroke-linecap="round" stroke-linejoin="round"/>
</svg>
